<?xml version="1.0" encoding="UTF-8" standalone="no"?>
<!-- Created with Inkscape (http://www.inkscape.org/) -->

<svg
   width="64.0px"
   height="64.0px"
   viewBox="0 0 64.0 64.0"
   version="1.1"
   id="SVGRoot"
   sodipodi:docname="drawing.svg"
   inkscape:version="1.2.1 (9c6d41e410, 2022-07-14)"
   inkscape:export-filename="drawing.png"
   inkscape:export-xdpi="96"
   inkscape:export-ydpi="96"
   xmlns:inkscape="http://www.inkscape.org/namespaces/inkscape"
   xmlns:sodipodi="http://sodipodi.sourceforge.net/DTD/sodipodi-0.dtd"
   xmlns="http://www.w3.org/2000/svg"
   xmlns:svg="http://www.w3.org/2000/svg">
  <sodipodi:namedview
     id="namedview165"
     pagecolor="#ffffff"
     bordercolor="#000000"
     borderopacity="0.25"
     inkscape:showpageshadow="2"
     inkscape:pageopacity="0.0"
     inkscape:pagecheckerboard="0"
     inkscape:deskcolor="#d1d1d1"
     inkscape:document-units="px"
     showgrid="true"
     inkscape:zoom="12.028548"
     inkscape:cx="14.9644"
     inkscape:cy="31.051129"
     inkscape:window-width="1846"
     inkscape:window-height="1016"
     inkscape:window-x="0"
     inkscape:window-y="0"
     inkscape:window-maximized="1"
     inkscape:current-layer="layer1">
    <inkscape:grid
       type="xygrid"
       id="grid171" />
  </sodipodi:namedview>
  <defs
     id="defs160" />
  <g
     inkscape:label="Layer 1"
     inkscape:groupmode="layer"
     id="layer1">
    <path
       style="fill:#e6e6e6;stroke-width:0.999587"
       d="M 4.2915927,55.762773 4.1492633,11.330309 c 0,0 -1.0538356,-6.4655077 4.8664661,-6.4363553 5.9203026,0.029153 46.2204556,0.065593 46.2204556,0.065593 0,0 5.007132,-0.3900725 5.122858,4.9546507 0.115726,5.3447216 -0.0113,46.7912766 -0.0113,46.7912766 0,0 0.463236,3.750527 -5.198678,3.858899 -5.661915,0.108371 -46.3175586,0.02946 -46.3175586,0.02946 0,0 -4.4993361,0.442357 -4.5399066,-4.83107 z"
       id="path232" />
    <path
       style="fill:#b3b3b3;stroke-width:1.00661"
       d="m 4.0306508,8.6285614 c 56.3097232,0.01819 56.3097232,0.01819 56.3097232,0.01819 0,0 -0.308977,-4.8377751 -5.755089,-4.9403956 C 49.139173,3.6037314 8.0131464,3.5472252 8.0131464,3.5472252 c 0,0 -3.9591331,0.3169543 -3.9824956,5.0813362 z"
       id="path508" />
    <ellipse
       style="fill:#ffff00"
       id="path886"
       cx="52.550961"
       cy="6.1497574"
       rx="1.4146034"
       ry="1.243461" />
    <ellipse
       style="fill:#ff0000"
       id="path886-3"
       cx="56.236855"
       cy="6.2406869"
       rx="1.4146034"
       ry="1.243461" />
    <ellipse
       style="fill:#00ff00"
       id="path886-3-6"
       cx="48.804665"
       cy="6.2686152"
       rx="1.4146034"
       ry="1.243461" />
    <rect
       style="fill:#999999"
       id="rect1116"
       width="17.193796"
       height="3.344907"
       x="24.007538"
       y="23.100643" />
    <rect
       style="fill:#999999;stroke-width:0.763718"
       id="rect1116-5"
       width="10.028551"
       height="3.344907"
       x="27.698467"
       y="17.716316" />
    <rect
       style="fill:#999999;stroke-width:0.763718"
       id="rect1116-5-5"
       width="10.028551"
       height="3.344907"
       x="28.178444"
       y="56.023945" />
    <rect
       style="fill:#999999"
       id="rect1116-7"
       width="17.193796"
       height="3.344907"
       x="24.001856"
       y="28.131966" />
    <rect
       style="fill:#999999;stroke-width:2.47958"
       id="rect1116-7-3"
       width="16.400436"
       height="21.560362"
       x="24.482483"
       y="32.883358" />
    <rect
       style="fill:#999999"
       id="rect1292"
       width="39.345524"
       height="2.9074712"
       x="13.17621"
       y="11.038518" />
  </g>
</svg>
